<?xml version="1.0" standalone="no"?>
<!DOCTYPE svg PUBLIC "-//W3C//DTD SVG 20010904//EN"
 "http://www.w3.org/TR/2001/REC-SVG-20010904/DTD/svg10.dtd">
<svg version="1.0" xmlns="http://www.w3.org/2000/svg"
 width="94.000000pt" height="115.000000pt" viewBox="0 0 94.000000 115.000000"
 preserveAspectRatio="xMidYMid meet">

<g transform="translate(0.000000,115.000000) scale(0.100000,-0.100000)"
fill="#000000" stroke="none">
<path d="M142 924 c-32 -22 -43 -57 -31 -94 13 -36 36 -50 83 -50 25 0 40 7
55 26 59 75 -30 172 -107 118z"/>
<path d="M706 918 c-24 -22 -30 -40 -27 -80 4 -58 102 -80 140 -32 63 80 -38
179 -113 112z"/>
<path d="M374 781 c-109 -50 -165 -197 -115 -306 42 -92 127 -140 234 -133 79
5 135 38 178 105 25 41 29 56 29 117 0 60 -5 79 -30 123 -58 101 -189 143
-296 94z"/>
<path d="M142 354 c-35 -24 -44 -59 -28 -98 25 -60 103 -68 140 -14 51 72 -40
163 -112 112z"/>
<path d="M708 350 c-49 -38 -37 -118 21 -138 84 -29 147 69 85 132 -32 31 -71
34 -106 6z"/>
</g>
</svg>
