<?xml version="1.0" standalone="no"?>
<!DOCTYPE svg PUBLIC "-//W3C//DTD SVG 20010904//EN"
 "http://www.w3.org/TR/2001/REC-SVG-20010904/DTD/svg10.dtd">
<svg version="1.0" xmlns="http://www.w3.org/2000/svg"
 width="108.000000pt" height="62.000000pt" viewBox="0 0 108.000000 62.000000"
 preserveAspectRatio="xMidYMid meet">

<g transform="translate(0.000000,62.000000) scale(0.100000,-0.100000)"
fill="#000000" stroke="none">
<path d="M172 492 c-9 -7 -12 -41 -10 -138 l3 -129 375 0 375 0 3 125 c2 109
0 126 -15 137 -13 10 -101 13 -367 13 -193 0 -357 -4 -364 -8z m158 -137 c0
-43 -4 -75 -10 -75 -6 0 -10 32 -10 75 0 43 4 75 10 75 6 0 10 -32 10 -75z
m40 0 c0 -43 -4 -75 -10 -75 -6 0 -10 32 -10 75 0 43 4 75 10 75 6 0 10 -32
10 -75z m40 0 c0 -43 -4 -75 -10 -75 -6 0 -10 32 -10 75 0 43 4 75 10 75 6 0
10 -32 10 -75z m50 0 c0 -60 -3 -75 -15 -75 -12 0 -15 15 -15 75 0 60 3 75 15
75 12 0 15 -15 15 -75z m40 0 c0 -60 -3 -75 -15 -75 -12 0 -15 15 -15 75 0 60
3 75 15 75 12 0 15 -15 15 -75z"/>
</g>
</svg>
